# xmcd CD database file generated by OrangeCD 6.4
#
# Track frame offsets:
#	150
#	9420
#	26834
#	40947
#	60495
#	78918
#	93280
#	121289
#	125157
#	133554
#	149606
#	190018
#	212011
#	242309
#
# Disc length: 3889 seconds
#
# Revision: 0
# Processed by: cddbd v1.5.2PL0 Copyright (c) Steve Scherf et al.
# Submitted via: OrangeCD 6.4
#
DISCID=b90f2f0e
DTITLE=Jimi Hendrix - Hendrix Live In Scandinavia Vol. 1
DYEAR=2007
DGENRE=Blues Rock
TTITLE0=Introduction and Tune-up
TTITLE1=Foxy Lady
TTITLE2=Rock Me Baby
TTITLE3=Hey Joe
TTITLE4=Can You See Me
TTITLE5=Purple Haze
TTITLE6=Wild Thing
TTITLE7=Introduction and Tune-up
TTITLE8=Sgt. Pepper's Lonely Hearts Club Band
TTITLE9=Rock Me Baby
TTITLE10=Catfish Blues
TTITLE11=Hey Joe
TTITLE12=Purple Haze
TTITLE13=Interview 25th May 1967
EXTD=Stora Scenen, Grona Lund, Tivoli Garden, Stockholm, Sweden\n1-7: 1967-05-2
EXTD=4\n8-13: 1967-09-04\n14: 1967-05-25
EXTT0=
EXTT1=
EXTT2=
EXTT3=
EXTT4=
EXTT5=
EXTT6=
EXTT7=
EXTT8=
EXTT9=
EXTT10=
EXTT11=
EXTT12=
EXTT13=
PLAYORDER=
